<?xml version="1.0" encoding="utf-8"?>
<!-- Generator: Adobe Illustrator 25.0.1, SVG Export Plug-In . SVG Version: 6.00 Build 0)  -->
<svg version="1.1" id="Layer_1" xmlns="http://www.w3.org/2000/svg" xmlns:xlink="http://www.w3.org/1999/xlink" x="0px" y="0px"
	 viewBox="0 0 380.9 151.2" style="enable-background:new 0 0 380.9 151.2;" xml:space="preserve">
<style type="text/css">
	.st0{enable-background:new    ;}
	.st1{fill:#113838;}
</style>
<g class="st0">
	<path class="st1" d="M66.4,17.8C65.3,6.6,59,4,52.5,4C40,4,28.5,17.5,28.5,35.3c0,13.6,6.3,22.1,16.2,22.1c3.1,0,5.8-0.8,6.7-5.9
		l1.4-7.7c1.2-6.7,0.3-7.1-8.3-8l0.8-3.1h26.7l-0.8,3.1c-4.9,0.6-5.5,1.2-6.8,8l-1.3,7.1c-0.5,2.7-0.6,5.1-0.5,6.8
		c-5.1,1.5-12.1,3.6-19.3,3.6c-17.2,0-28.3-9.2-28.3-25.7C15.1,14.1,31.9,0,54.6,0c7.4,0,13.8,1.7,16.1,2.5c-0.3,3-0.7,8.5-1.1,14.9
		L66.4,17.8z"/>
	<path class="st1" d="M120.3,44.8c-1.2,3.1-4.3,11.8-5.8,15H72l0.6-3c7.2-0.6,7.8-1.4,9.3-8.5l6.9-35.9c1.3-6.5,0.7-7.4-6.3-7.9
		l0.6-3.1h26.9l-0.7,3.1c-7,0.5-7.6,1.4-8.9,7.9l-6.8,35.4c-0.5,3.4-0.6,5.1,0.3,6.5c1,1.3,3.3,1.8,7,1.8c4.2,0,7.2-0.8,9.4-3
		c2-1.9,4.3-5,6.6-9.4L120.3,44.8z"/>
	<path class="st1" d="M184.7,25.8c0,19.7-13.7,35.4-33.5,35.4c-14.8,0-24.9-9.8-24.9-25.4c0-19.1,13.9-35.8,33.6-35.8
		C175,0,184.7,10.6,184.7,25.8z M139.5,38.1c0,11.2,3.4,19.3,12.2,19.3c11.9,0,19.8-18.4,19.8-33.9c0-11.3-3.4-19.6-12.2-19.6
		C148.5,3.9,139.5,20.8,139.5,38.1z"/>
	<path class="st1" d="M218.8,1.4c12.2,0,19.1,3.8,19.1,12.5c0,8.6-7.3,12.4-15.5,13.8v0.2c7.7,1.4,13.9,5.7,13.9,13.8
		c0,6.8-4.2,11.8-10.3,14.8c-5.3,2.6-12.5,3.3-20.2,3.3h-21.5l0.7-3.1c6.5-0.5,7.4-1.5,8.7-8.5l6.8-34.9c1.4-7.5,0.5-8.3-6.1-8.8
		l0.8-3.1H218.8z M205.2,48.1c-1.3,6.8,1.6,8.1,5,8.1c6.4,0,13.2-5.2,13.2-14.8c0-8.1-6.1-11.1-12.5-11.1h-2.3L205.2,48.1z
		 M211.7,26.6c9.4,0,13.9-5.2,13.9-12.3c0-6.5-3.8-9.2-8.3-9.2c-1.5,0-2.8,0.2-3.5,0.9c-0.6,0.6-1.1,1.9-1.5,4.3l-3,16.3H211.7z"/>
	<path class="st1" d="M294.2,59.8h-24.5l0.9-3.1c5.6-0.6,5.9-1.8,5.3-6.1c-0.5-3.1-0.9-6.3-1.4-10.1h-17.1c-1.7,3.3-3.3,6.7-5,10.2
		c-1.9,4-1.9,5.1,5.1,6l-0.8,3.1h-20.2l0.8-3.1c5.4-0.9,6.5-1.5,11.5-10.2l25.9-45.3l4.8-1.2l1.5,10.3c2,12.3,4.2,24.6,6.1,36.7
		c1.2,7.9,1.7,8.9,7.8,9.6L294.2,59.8z M271,15.8h-0.3c-3.4,6.4-7.4,13.1-11,20.2h14.1L271,15.8z"/>
	<path class="st1" d="M346.8,44.8c-1.2,3.1-4.3,11.8-5.8,15h-42.5l0.6-3c7.2-0.6,7.8-1.4,9.3-8.5l6.9-35.9c1.3-6.5,0.7-7.4-6.3-7.9
		l0.6-3.1h26.9l-0.7,3.1c-7,0.5-7.6,1.4-8.9,7.9l-6.8,35.4c-0.5,3.4-0.6,5.1,0.3,6.5c1,1.3,3.3,1.8,7,1.8c4.2,0,7.2-0.8,9.4-3
		c2-1.9,4.3-5,6.6-9.4L346.8,44.8z"/>
</g>
<g class="st0">
	<path class="st1" d="M51.3,107.8C50.1,96.6,43.8,94,37.3,94c-12.5,0-23.9,13.5-23.9,31.3c0,13.6,6.3,22.1,16.2,22.1
		c3.1,0,5.8-0.8,6.7-5.9l1.4-7.7c1.2-6.7,0.3-7.1-8.3-8l0.8-3.1H57l-0.8,3.1c-4.9,0.6-5.5,1.2-6.8,8l-1.3,7.1
		c-0.5,2.7-0.6,5.1-0.5,6.8c-5.1,1.5-12.1,3.6-19.3,3.6C11.1,151.2,0,142,0,125.5C0,104.1,16.7,90,39.4,90c7.4,0,13.8,1.7,16.1,2.5
		c-0.3,3-0.7,8.5-1.1,14.9L51.3,107.8z"/>
	<path class="st1" d="M112,150.6h-1.5c-12.1-0.1-14.7-3-17.5-8.6c-1.8-3.7-3.9-8.9-5.3-13.2c-1.1-2.9-2.1-4.2-4.8-4.2h-2.2
		l-2.5,13.8c-1.3,7.1-0.5,8,5.9,8.5l-0.7,3.1H57.4l0.7-3.1c6.3-0.5,7.3-1.4,8.6-8.5l6.9-35.6c1.4-7.2,0.7-7.7-6.1-8.2l0.8-3.1h22.7
		c5.5,0,10.5,0.6,14.1,2.8c3.5,2.2,6,5.9,6,11.4c0,8.7-6.6,14.1-14,16.5c0.7,1.7,2.9,7.7,4.9,12c2.5,4.9,4,8,5.5,10.1
		c1.7,2.2,3.1,3,5.2,3.6L112,150.6z M83.8,120.9c3.4,0,6.2-0.5,8.7-2.1c4.1-2.6,6.4-7.5,6.4-12.8c0-7.4-3.9-11-8.4-11
		c-1.7,0-2.8,0.4-3.5,1.1c-0.6,0.5-1.1,1.7-1.4,3.7l-4,21.1H83.8z"/>
	<path class="st1" d="M171.7,149.8h-24.5l0.9-3.1c5.6-0.6,5.9-1.8,5.3-6.1c-0.5-3.1-0.9-6.3-1.4-10.1h-17.1
		c-1.7,3.3-3.3,6.7-4.9,10.2c-1.9,4-1.9,5.1,5.1,6l-0.8,3.1H114l0.8-3.1c5.4-0.9,6.5-1.5,11.5-10.2l25.9-45.3l4.8-1.2l1.5,10.3
		c2,12.3,4.2,24.6,6.1,36.7c1.2,7.9,1.7,8.9,7.8,9.6L171.7,149.8z M148.5,105.8h-0.3c-3.4,6.4-7.4,13.1-11,20.2h14.1L148.5,105.8z"
		/>
	<path class="st1" d="M232.5,94.5c-5.3,0.6-6.5,1.4-11.2,9.1c-6.3,10.1-17.5,29.8-27.2,47.2H190c-2.9-17-6.8-38.3-8.7-48
		c-1.3-6.8-2.3-7.7-7.6-8.3l0.7-3.1h24.4l-0.8,3.1l-1.8,0.2c-3.4,0.5-4,1.2-3.5,4.9c0.6,5.4,3.7,21.8,5.9,35.3h0.2
		c6.1-10.7,14.3-25.4,18-33.2c2.5-5.2,1.9-6.6-2.6-7l-1.7-0.1l0.8-3.1h20L232.5,94.5z"/>
	<path class="st1" d="M263,94.5c-6.6,0.5-7.1,1.3-8.5,8.5l-6.8,35.2c-1.4,7.1-0.8,8,6.3,8.5l-0.6,3.1h-26.6l0.6-3.1
		c6.4-0.5,7.1-1.4,8.5-8.5l6.9-35.2c1.4-7.2,0.8-8-6.5-8.5l0.7-3.1h26.6L263,94.5z"/>
	<path class="st1" d="M320,89.2c-0.7,3.5-1.7,11.4-2.4,16.8l-3.3,0.2c0-4.1-0.3-6.9-1.4-8.7c-1.3-1.8-3.6-2.2-8.2-2.2h-4.5
		l-8.2,43.1c-1.3,6.8-1,7.9,7.4,8.5l-0.7,3.1h-28.8l0.7-3.1c7.6-0.5,8.3-1.9,9.5-8.5l8.4-43.1h-3.8c-6.7,0-8.3,0.9-10.1,2.8
		c-1.5,1.7-2.8,4.1-4.7,8.2h-3.2c1.8-5.8,3.5-12.2,4.5-17h2.3c0.9,2.1,1.7,2.2,4.1,2.2H313c2.2,0,2.8-0.5,4.5-2.2H320z"/>
	<path class="st1" d="M380,94.5c-5.8,0.6-6.9,1.6-11.8,7.6c-3.3,4.3-7.7,10.8-13.1,18.8c-1.1,1.6-2.1,4-2.4,5.5l-2.3,11.4
		c-1.5,7.4-0.6,8.5,7.1,9l-0.8,3.1h-28.4l0.8-3.1c7-0.5,8-1.4,9.6-9l2.2-10.4c0.5-2.5,0.5-3.8-0.4-6.2c-1.5-4.4-3.4-10.3-6.4-19
		c-2.2-6.5-3.2-7.1-8.5-7.6l0.9-3.1h23.6l-0.7,3.1l-2.4,0.5c-2.6,0.5-2.8,1.4-1.9,4.4c1.6,5.4,4,12.6,6.6,19.7
		c4-5.9,9.4-14.1,12.3-19.3c1.9-3.2,1.5-4.2-2.2-4.9l-2-0.3l1-3.1h20.2L380,94.5z"/>
</g>
</svg>
