<?xml version="1.0" encoding="utf-8"?>
<!-- Generator: Adobe Illustrator 25.0.1, SVG Export Plug-In . SVG Version: 6.00 Build 0)  -->
<svg version="1.1" id="Layer_1" xmlns="http://www.w3.org/2000/svg" xmlns:xlink="http://www.w3.org/1999/xlink" x="0px" y="0px"
	 viewBox="0 0 738.8 34.5" style="enable-background:new 0 0 738.8 34.5;" xml:space="preserve">
<style type="text/css">
	.st0{enable-background:new    ;}
	.st1{fill:#FCFADB;}
</style>
<g class="st0">
	<path class="st1" d="M28.5,10.4c-0.6-6.2-4.2-7.7-7.8-7.7c-7,0-13.3,7.5-13.3,17.4c0,7.5,3.5,12.3,9,12.3c1.7,0,3.2-0.5,3.7-3.3
		l0.8-4.3c0.6-3.7,0.1-4-4.6-4.5l0.5-1.7h14.9l-0.5,1.7c-2.7,0.3-3.1,0.6-3.8,4.5l-0.7,4c-0.3,1.5-0.4,2.8-0.3,3.8
		c-2.9,0.8-6.8,2-10.8,2C6.2,34.5,0,29.4,0,20.2C0,8.3,9.3,0.5,21.9,0.5c4.1,0,7.7,1,9,1.4c-0.1,1.6-0.4,4.8-0.6,8.3L28.5,10.4z"/>
	<path class="st1" d="M58.4,25.4c-0.7,1.8-2.4,6.6-3.2,8.4H31.6l0.4-1.7c4-0.3,4.4-0.8,5.1-4.8l3.9-20c0.7-3.6,0.4-4.1-3.5-4.4
		l0.4-1.7h15L52.4,3c-3.9,0.3-4.2,0.8-5,4.4L43.7,27c-0.3,1.9-0.4,2.8,0.1,3.6c0.5,0.7,1.9,1,3.9,1c2.4,0,4-0.4,5.2-1.6
		c1.1-1.1,2.4-2.8,3.7-5.2L58.4,25.4z"/>
	<path class="st1" d="M94.2,14.8c0,11-7.6,19.7-18.6,19.7c-8.3,0-13.9-5.5-13.9-14.1c0-10.6,7.7-19.9,18.7-19.9
		C88.8,0.5,94.2,6.4,94.2,14.8z M69.1,21.6c0,6.2,1.9,10.8,6.8,10.8c6.6,0,11-10.3,11-18.9c0-6.3-1.9-10.9-6.8-10.9
		C74.1,2.6,69.1,12,69.1,21.6z"/>
	<path class="st1" d="M113.2,1.2c6.8,0,10.6,2.1,10.6,7c0,4.8-4.1,6.9-8.6,7.7V16c4.3,0.8,7.8,3.2,7.8,7.7c0,3.8-2.4,6.6-5.7,8.2
		c-3,1.5-7,1.9-11.3,1.9H94l0.4-1.7c3.6-0.3,4.1-0.8,4.9-4.8L103,7.9c0.8-4.2,0.2-4.6-3.4-4.9l0.4-1.7H113.2z M105.6,27.2
		c-0.7,3.8,0.9,4.5,2.8,4.5c3.6,0,7.4-2.9,7.4-8.2c0-4.5-3.4-6.2-7-6.2h-1.3L105.6,27.2z M109.2,15.3c5.3,0,7.8-2.9,7.8-6.9
		c0-3.6-2.1-5.1-4.6-5.1c-0.9,0-1.6,0.1-2,0.5c-0.4,0.3-0.6,1-0.9,2.4l-1.6,9.1H109.2z"/>
	<path class="st1" d="M155.1,33.7h-13.6L142,32c3.1-0.3,3.3-1,3-3.4c-0.2-1.7-0.5-3.5-0.8-5.6h-9.5c-1,1.8-1.9,3.8-2.8,5.6
		c-1.1,2.2-1.1,2.9,2.9,3.4l-0.5,1.7H123l0.5-1.7c3-0.5,3.6-0.8,6.4-5.7l14.4-25.2l2.6-0.7l0.9,5.7c1.1,6.9,2.4,13.7,3.4,20.4
		c0.6,4.4,0.9,5,4.4,5.4L155.1,33.7z M142.2,9.3H142c-1.9,3.5-4.1,7.3-6.1,11.2h7.9L142.2,9.3z"/>
	<path class="st1" d="M184.3,25.4c-0.7,1.8-2.4,6.6-3.2,8.4h-23.6l0.4-1.7c4-0.3,4.4-0.8,5.1-4.8l3.9-20c0.7-3.6,0.4-4.1-3.5-4.4
		l0.4-1.7h15L178.2,3c-3.9,0.3-4.2,0.8-5,4.4L169.5,27c-0.3,1.9-0.4,2.8,0.1,3.6c0.5,0.7,1.9,1,3.9,1c2.4,0,4-0.4,5.2-1.6
		c1.1-1.1,2.4-2.8,3.7-5.2L184.3,25.4z"/>
	<path class="st1" d="M227.6,10.4c-0.6-6.2-4.2-7.7-7.8-7.7c-7,0-13.3,7.5-13.3,17.4c0,7.5,3.5,12.3,9,12.3c1.7,0,3.2-0.5,3.7-3.3
		l0.8-4.3c0.6-3.7,0.1-4-4.6-4.5l0.5-1.7h14.9l-0.5,1.7c-2.7,0.3-3.1,0.6-3.8,4.5l-0.7,4c-0.3,1.5-0.4,2.8-0.3,3.8
		c-2.9,0.8-6.8,2-10.8,2c-9.6,0-15.7-5.1-15.7-14.3c0-11.9,9.3-19.7,21.9-19.7c4.1,0,7.7,1,9,1.4c-0.1,1.6-0.4,4.8-0.6,8.3
		L227.6,10.4z"/>
	<path class="st1" d="M261.3,34.1h-0.9c-6.7-0.1-8.2-1.7-9.7-4.8c-1-2-2.1-5-3-7.4c-0.6-1.6-1.1-2.3-2.6-2.3h-1.2l-1.4,7.7
		c-0.8,4-0.3,4.5,3.3,4.8l-0.4,1.7h-14.5l0.4-1.7c3.5-0.3,4.1-0.8,4.8-4.7L240,7.5c0.8-4,0.4-4.3-3.4-4.6l0.5-1.7h12.6
		c3.1,0,5.9,0.4,7.9,1.5c2,1.2,3.4,3.3,3.4,6.4c0,4.9-3.7,7.9-7.8,9.2c0.4,1,1.6,4.3,2.8,6.7c1.4,2.8,2.2,4.5,3.1,5.6
		c1,1.2,1.8,1.7,2.9,2L261.3,34.1z M245.6,17.6c1.9,0,3.5-0.2,4.9-1.2c2.3-1.5,3.5-4.2,3.5-7.1c0-4.1-2.1-6.1-4.6-6.1
		c-1,0-1.6,0.2-2,0.6c-0.4,0.3-0.6,1-0.8,2l-2.2,11.7H245.6z"/>
	<path class="st1" d="M294.5,33.7h-13.6l0.5-1.7c3.1-0.3,3.3-1,3-3.4c-0.2-1.7-0.5-3.5-0.8-5.6H274c-1,1.8-1.9,3.8-2.8,5.6
		c-1.1,2.2-1.1,2.9,2.9,3.4l-0.5,1.7h-11.3l0.5-1.7c3-0.5,3.6-0.8,6.4-5.7l14.4-25.2l2.6-0.7l0.9,5.7c1.1,6.9,2.4,13.7,3.4,20.4
		c0.6,4.4,0.9,5,4.4,5.4L294.5,33.7z M281.5,9.3h-0.1c-1.9,3.5-4.1,7.3-6.1,11.2h7.9L281.5,9.3z"/>
	<path class="st1" d="M328.2,3c-3,0.3-3.6,0.8-6.2,5.1c-3.5,5.6-9.8,16.6-15.1,26.2h-2.3c-1.6-9.5-3.8-21.3-4.9-26.7
		c-0.7-3.8-1.3-4.3-4.2-4.6l0.4-1.7h13.6L309,3L308,3c-1.9,0.3-2.2,0.7-2,2.7c0.3,3,2,12.1,3.3,19.6h0.1c3.4-6,8-14.1,10-18.5
		c1.4-2.9,1.1-3.7-1.5-3.9l-0.9,0l0.4-1.7h11.1L328.2,3z"/>
	<path class="st1" d="M345.1,3c-3.7,0.3-4,0.8-4.8,4.8l-3.8,19.6c-0.8,4-0.4,4.5,3.5,4.8l-0.4,1.7H325l0.3-1.7
		c3.6-0.3,4-0.8,4.8-4.8l3.8-19.6c0.8-4,0.5-4.5-3.6-4.8l0.4-1.7h14.8L345.1,3z"/>
	<path class="st1" d="M376.8,0c-0.4,2-1,6.4-1.3,9.4l-1.9,0.1c0-2.3-0.1-3.8-0.8-4.8c-0.8-1-2-1.2-4.5-1.2h-2.5l-4.6,24
		c-0.7,3.8-0.5,4.4,4.1,4.7l-0.4,1.7h-16l0.4-1.7c4.2-0.3,4.6-1,5.3-4.7l4.7-24h-2.1c-3.7,0-4.6,0.5-5.6,1.5c-0.9,1-1.5,2.3-2.6,4.5
		h-1.8c1-3.2,2-6.8,2.5-9.5h1.3c0.5,1.2,0.9,1.2,2.3,1.2h19.6c1.3,0,1.6-0.3,2.5-1.2H376.8z"/>
	<path class="st1" d="M410.1,3c-3.2,0.3-3.9,0.9-6.6,4.2c-1.8,2.4-4.3,6-7.3,10.5c-0.6,0.9-1.2,2.2-1.4,3l-1.3,6.4
		c-0.9,4.1-0.3,4.7,4,5l-0.5,1.7h-15.8l0.5-1.7c3.9-0.3,4.5-0.8,5.4-5l1.2-5.8c0.3-1.4,0.2-2.1-0.2-3.5c-0.9-2.5-1.9-5.7-3.6-10.6
		c-1.2-3.6-1.8-4-4.7-4.2l0.5-1.7h13.1L393.1,3l-1.4,0.3c-1.4,0.2-1.5,0.8-1,2.5c0.9,3,2.2,7,3.7,11c2.2-3.3,5.2-7.9,6.9-10.8
		c1-1.8,0.8-2.3-1.2-2.8L398.9,3l0.6-1.8h11.2L410.1,3z"/>
	<path class="st1" d="M448.9,33.7h-13.6l0.5-1.7c3.1-0.3,3.3-1,3-3.4c-0.2-1.7-0.5-3.5-0.8-5.6h-9.5c-1,1.8-1.8,3.8-2.8,5.6
		c-1,2.2-1,2.9,2.8,3.4l-0.4,1.7h-11.3l0.5-1.7c3-0.5,3.6-0.8,6.4-5.7l14.4-25.2l2.7-0.7l0.8,5.7c1.1,6.9,2.4,13.7,3.4,20.4
		c0.7,4.4,1,5,4.4,5.4L448.9,33.7z M436,9.3h-0.2c-1.9,3.5-4.1,7.3-6.1,11.2h7.9L436,9.3z"/>
	<path class="st1" d="M453.7,23.2c0.5,3.3,2.8,9.2,8,9.2c3.6,0,5.4-2.7,5.4-5.5c0-2.3-1.4-4.4-4-6.4l-1.5-1.1c-3.1-2.5-6-5.2-6-9.4
		c0-5.9,4.8-9.6,10.9-9.6c2,0,3.9,0.3,5.7,1c0.9,0.3,1.6,0.6,2.1,0.8c-0.2,2-0.2,4.5-0.3,7.7l-1.8,0.2c-0.4-3.2-1.6-7.6-6-7.6
		c-3.2,0-4.8,2.8-4.8,5.2c0,2.5,1.4,4,4.1,6l1.5,1c3.5,2.5,6.3,5.3,6.3,9.8c0,6.3-5.4,10.1-12.1,10.1c-4.2,0-7.7-1.7-9.1-3.1
		c0.1-1.1,0.1-4,0-8L453.7,23.2z"/>
	<path class="st1" d="M478.1,23.2c0.5,3.3,2.8,9.2,8,9.2c3.6,0,5.4-2.7,5.4-5.5c0-2.3-1.4-4.4-4-6.4l-1.5-1.1c-3.1-2.5-6-5.2-6-9.4
		c0-5.9,4.8-9.6,10.9-9.6c2,0,3.9,0.3,5.7,1c0.9,0.3,1.6,0.6,2.1,0.8c-0.2,2-0.2,4.5-0.3,7.7l-1.8,0.2c-0.4-3.2-1.6-7.6-6-7.6
		c-3.2,0-4.8,2.8-4.8,5.2c0,2.5,1.4,4,4.1,6l1.5,1c3.5,2.5,6.3,5.3,6.3,9.8c0,6.3-5.4,10.1-12.1,10.1c-4.2,0-7.7-1.7-9.1-3.1
		c0.1-1.1,0.1-4,0-8L478.1,23.2z"/>
	<path class="st1" d="M534.7,14.8c0,11-7.6,19.7-18.6,19.7c-8.2,0-13.9-5.5-13.9-14.1c0-10.6,7.7-19.9,18.7-19.9
		C529.3,0.5,534.7,6.4,534.7,14.8z M509.6,21.6c0,6.2,1.9,10.8,6.8,10.8c6.6,0,11-10.3,11-18.9c0-6.3-1.9-10.9-6.8-10.9
		C514.6,2.6,509.6,12,509.6,21.6z"/>
	<path class="st1" d="M567.4,24.9c-1,2.6-2.9,6.3-4.1,8.3c-1.6,0.5-4.9,1.3-8.8,1.3c-8.8,0-15.2-5-15.2-14.3
		c0-12.3,9.9-19.8,21.6-19.8c4.5,0,7.5,1,8.7,1.4c-0.1,2.6-0.3,5.5-0.5,8.4l-1.7,0.2c-1-6.1-3.6-7.9-7.5-7.9
		c-7.1,0-13.2,7.8-13.2,17.4c0,7.7,3.3,12.3,8.3,12.3c3.8,0,7-2.8,10.7-8.2L567.4,24.9z"/>
	<path class="st1" d="M589.1,3c-3.7,0.3-4,0.8-4.8,4.8l-3.8,19.6c-0.8,4-0.4,4.5,3.5,4.8l-0.4,1.7H569l0.3-1.7
		c3.6-0.3,4-0.8,4.8-4.8l3.8-19.6c0.8-4,0.5-4.5-3.6-4.8l0.4-1.7h14.8L589.1,3z"/>
	<path class="st1" d="M617.4,33.7h-13.6l0.5-1.7c3.1-0.3,3.3-1,3-3.4c-0.2-1.7-0.5-3.5-0.8-5.6h-9.5c-1,1.8-1.8,3.8-2.8,5.6
		c-1,2.2-1,2.9,2.8,3.4l-0.4,1.7h-11.3l0.5-1.7c3-0.5,3.6-0.8,6.4-5.7l14.4-25.2l2.7-0.7l0.8,5.7c1.1,6.9,2.4,13.7,3.4,20.4
		c0.7,4.4,1,5,4.4,5.4L617.4,33.7z M604.5,9.3h-0.2c-1.9,3.5-4.1,7.3-6.1,11.2h7.9L604.5,9.3z"/>
	<path class="st1" d="M649.6,0c-0.4,2-1,6.4-1.3,9.4l-1.9,0.1c0-2.3-0.1-3.8-0.8-4.8c-0.8-1-2-1.2-4.5-1.2h-2.5l-4.6,24
		c-0.7,3.8-0.5,4.4,4.1,4.7l-0.4,1.7h-16l0.4-1.7c4.2-0.3,4.6-1,5.3-4.7l4.7-24H630c-3.7,0-4.6,0.5-5.6,1.5c-0.9,1-1.5,2.3-2.6,4.5
		H620c1-3.2,2-6.8,2.5-9.5h1.3c0.5,1.2,1,1.2,2.3,1.2h19.6c1.3,0,1.6-0.3,2.5-1.2H649.6z"/>
	<path class="st1" d="M667.4,3c-3.7,0.3-4,0.8-4.8,4.8l-3.8,19.6c-0.8,4-0.4,4.5,3.5,4.8l-0.4,1.7h-14.8l0.3-1.7
		c3.6-0.3,4-0.8,4.8-4.8l3.8-19.6c0.8-4,0.5-4.5-3.6-4.8l0.4-1.7h14.8L667.4,3z"/>
	<path class="st1" d="M700.4,14.8c0,11-7.6,19.7-18.6,19.7c-8.2,0-13.9-5.5-13.9-14.1c0-10.6,7.7-19.9,18.7-19.9
		C695,0.5,700.4,6.4,700.4,14.8z M675.3,21.6c0,6.2,1.9,10.8,6.8,10.8c6.6,0,11-10.3,11-18.9c0-6.3-1.9-10.9-6.8-10.9
		C680.3,2.6,675.3,12,675.3,21.6z"/>
	<path class="st1" d="M738.4,3c-3,0.1-3.8,1-4.3,3.1c-0.5,1.5-1.1,3.6-2,8.6l-3.8,19.6h-2.6L711.4,8.8h-0.1l-2.3,11.8
		c-0.8,4.4-1,6.6-1.1,8.2c-0.1,2.4,0.8,3.2,4.3,3.4l-0.4,1.7h-12.1l0.5-1.7c2.5-0.2,3.5-0.9,4.2-3.2c0.5-1.5,1.1-3.6,2.1-8.4
		l2.2-10.1c0.8-3.8,0.5-4.9,0-5.9c-0.6-1.1-1.9-1.4-4-1.5l0.4-1.7h9.2l13.3,23.1h0.1l1.8-9.6c0.9-5.1,1.1-7.1,1.2-8.5
		c0.2-2.5-0.9-3.2-4.4-3.4l0.4-1.7h12.1L738.4,3z"/>
</g>
</svg>
